<svg xmlns="http://www.w3.org/2000/svg" viewBox="0 0 24 24" fill="none">
  <path d="M12 21.8462C11.6385 21.8462 11.2769 21.7538 10.9615 21.5692L8.46154 20.0769C8 19.8 8.23077 19.7077 8.38462 19.6615C9 19.4308 9.15385 19.3846 9.69231 19.0692C9.76923 19.0231 9.84615 19.0231 9.92308 19.0692L11.8385 20.2154C11.9154 20.2615 12.0385 20.2615 12.1154 20.2154L19.2308 16.0769C19.3077 16.0308 19.3846 15.9385 19.3846 15.8462V7.56923C19.3846 7.47693 19.3077 7.38462 19.2308 7.33847L12.1154 3.2C12.0385 3.15385 11.9154 3.15385 11.8385 3.2L4.76923 7.33847C4.69231 7.38462 4.61539 7.47693 4.61539 7.56923V15.8462C4.61539 15.9385 4.69231 16.0308 4.76923 16.0769L6.76923 17.1769C7.76923 17.6769 8.38462 17.1308 8.38462 16.5846V8.24616C8.38462 8.15385 8.46154 8.07693 8.53846 8.07693H9.46154C9.53846 8.07693 9.61539 8.15385 9.61539 8.24616V16.5846C9.61539 17.8615 8.92308 18.6462 7.69231 18.6462C7.30769 18.6462 7 18.6462 6.15385 18.2308L4.23077 17.2154C3.61539 16.8462 3.23077 16.1538 3.23077 15.4154V7.56923C3.23077 6.83078 3.61539 6.13847 4.23077 5.76923L11.3462 1.63078C11.9615 1.26154 12.7692 1.26154 13.3846 1.63078L20.5 5.76923C21.1154 6.13847 21.5 6.83078 21.5 7.56923V15.4154C21.5 16.1538 21.1154 16.8462 20.5 17.2154L13.3846 21.3538C13.0692 21.5385 12.7077 21.6308 12.3462 21.6308L12 21.8462Z" fill="#8CC84B"/>
  <path d="M14.6923 15.8462C11.3846 15.8462 10.6923 14.6077 10.6923 13.5538C10.6923 13.4615 10.7692 13.3846 10.8462 13.3846H11.7692C11.8462 13.3846 11.9231 13.4615 11.9231 13.5385C12.1538 14.3231 12.6538 14.7077 14.6923 14.7077C16.3077 14.7077 17.0769 14.3692 17.0769 13.5077C17.0769 13.0077 16.8923 12.6231 14.4615 12.3462C12.4231 12.1154 11.1462 11.6154 11.1462 10.1538C11.1462 8.83847 12.2923 8 14.4615 8C16.8462 8 18 8.83847 18.2308 10.4077C18.2308 10.5 18.1538 10.5769 18.0769 10.5769H17.1538C17.0769 10.5769 17 10.5 17 10.4231C16.7692 9.63847 16.2231 9.16924 14.4615 9.16924C12.7692 9.16924 12.3077 9.63847 12.3077 10.1538C12.3077 10.7 12.8462 10.9308 15.1154 11.2769C17.3846 11.6231 18.2308 12.1154 18.2308 13.5538C18.2308 14.9846 17.0769 15.8462 14.6923 15.8462V15.8462Z" fill="#8CC84B"/>
</svg>