<svg xmlns="http://www.w3.org/2000/svg" viewBox="0 0 24 24" fill="none">
  <path d="M11.7873 0C5.77191 0 6.15291 2.65085 6.15291 2.65085L6.15976 5.38797H11.8846V6.26418H3.86212C3.86212 6.26418 0 5.81502 0 11.8291C0 17.8431 3.37277 17.5879 3.37277 17.5879H5.36957V14.7473C5.36957 14.7473 5.21601 11.3745 8.66115 11.3745C12.1063 11.3745 14.0905 11.3745 14.0905 11.3745C14.0905 11.3745 17.3824 11.4397 17.3824 8.21877C17.3824 4.99789 17.3824 3.06066 17.3824 3.06066C17.3824 3.06066 17.8021 0 11.7873 0ZM8.63599 1.85271C9.18844 1.85173 9.71823 2.07836 10.111 2.47116C10.5038 2.86397 10.7304 3.39376 10.7294 3.94621C10.7294 5.09092 9.79954 6.02079 8.65484 6.02079C7.51013 6.02079 6.58027 5.09092 6.58027 3.94621C6.5793 3.39385 6.80578 2.86414 7.19833 2.47122C7.59089 2.07829 8.12045 1.85134 8.67281 1.85134L8.63599 1.85271Z" fill="#366994"/>
  <path d="M12.0307 23.9172C18.0461 23.9172 17.6651 21.2664 17.6651 21.2664L17.6582 18.5293H11.9334V17.653H19.9559C19.9559 17.653 23.818 18.1022 23.818 12.0881C23.818 6.07408 20.4453 6.32929 20.4453 6.32929H18.4484V9.16986C18.4484 9.16986 18.602 12.5427 15.1569 12.5427C11.7118 12.5427 9.72753 12.5427 9.72753 12.5427C9.72753 12.5427 6.43567 12.4775 6.43567 15.6984C6.43567 18.9193 6.43567 20.8566 6.43567 20.8566C6.43567 20.8566 6.0159 23.9172 12.0307 23.9172ZM15.1821 22.0645C14.6296 22.0655 14.0998 21.8389 13.7071 21.4461C13.3143 21.0532 13.0876 20.5235 13.0887 19.971C13.0887 18.8263 14.0185 17.8965 15.1632 17.8965C16.3079 17.8965 17.2378 18.8263 17.2378 19.971C17.2387 20.5234 17.0123 21.0531 16.6197 21.446C16.227 21.8389 15.6973 22.0656 15.145 22.0645H15.1821Z" fill="#FFD43B"/>
</svg>